<?xml version="1.0" standalone="no"?>
<svg version="1.0" xmlns="http://www.w3.org/2000/svg"
 width="794.000000pt" height="465.000000pt" viewBox="0 0 794.000000 465.000000"
 preserveAspectRatio="xMidYMid meet">

<g transform="translate(0.000000,465.000000) scale(0.100000,-0.100000)" stroke="none">
<path fill="#ffffff" d="M233 4643 c146 -2 237 -7 237 -13 0 -6 -88 -10 -235 -10 -202 0 -235
-2 -235 -15 0 -13 34 -15 244 -15 134 0 251 3 260 6 9 3 16 17 16 30 l0 24
-262 -2 -263 -3 238 -2z"/>
<path fill="#ffffff" d="M1000 4629 c0 -11 5 -29 10 -40 10 -18 24 -19 295 -19 l285 0 0 -79
c0 -76 1 -79 26 -85 14 -4 114 -6 222 -6 108 0 205 1 215 0 15 0 17 -11 17
-85 l0 -85 2693 2 2692 3 3 108 3 107 174 0 c105 0 176 -4 180 -10 3 -5 19
-10 36 -10 l29 0 0 -241 0 -240 -27 3 c-20 2 -29 -2 -31 -14 -3 -14 3 -18 27
-18 l31 0 0 -241 0 -241 -26 5 c-17 3 -28 0 -31 -10 -7 -18 12 -39 21 -24 4 6
14 11 22 11 12 0 14 -38 14 -246 l0 -246 -30 7 c-26 6 -30 4 -30 -14 0 -17 6
-21 30 -21 l30 0 0 -276 0 -276 -30 6 c-25 5 -30 2 -30 -14 0 -16 7 -20 30
-20 l30 0 0 -275 0 -275 -29 0 c-17 0 -31 -6 -35 -16 -3 -9 -6 -357 -6 -774 0
-417 -3 -761 -7 -763 -5 -3 -7 -53 -5 -111 3 -81 6 -106 17 -106 7 0 17 9 20
20 8 26 35 26 42 0 3 -11 11 -20 18 -20 11 0 13 163 14 872 1 812 2 874 18
885 16 12 16 13 0 13 -21 0 -21 -20 -20 540 1 473 1 480 20 480 7 0 13 5 13
10 0 6 -7 10 -15 10 -11 0 -15 12 -15 45 0 33 4 45 15 45 21 0 19 17 -3 22
-17 5 -18 46 -19 863 -1 471 -4 860 -7 863 -3 3 -6 -36 -6 -86 0 -50 -4 -93
-10 -97 -5 -3 -19 -3 -32 0 -22 6 -23 9 -20 95 3 76 2 90 -12 90 -12 0 -16
-17 -18 -92 l-3 -93 -163 -3 -162 -2 0 95 0 95 -247 -2 -248 -2 235 -6 c129
-3 228 -8 220 -11 -8 -3 -117 -6 -242 -7 -187 -1 -228 2 -238 13 -11 13 -333
15 -2456 15 l-2443 0 -3 -92 -3 -93 -140 -3 c-196 -4 -184 -11 -188 101 l-3
92 0 -100 1 -100 173 -3 c105 -1 172 -6 172 -12 0 -7 -80 -9 -222 -8 l-223 3
-3 108 c-1 59 -7 107 -12 107 -5 0 -10 -10 -12 -22 l-3 -23 -270 0 -270 0 -3
23 c-4 29 -42 31 -42 1z m5910 -1 c0 -4 -39 -9 -86 -10 l-86 -3 -2 -180 -1
-180 -2314 -3 c-1273 -1 -2319 2 -2323 6 -5 5 -5 93 -2 196 l7 188 2404 -3
c1321 -2 2403 -7 2403 -11z m454 -47 c-11 -10 -30 -21 -335 -184 -130 -70
-241 -127 -247 -127 -9 0 -12 46 -12 160 l0 160 302 0 c174 0 298 -4 292 -9z
m66 -166 l0 -165 -301 0 c-177 0 -298 4 -295 9 5 8 193 111 456 249 47 25 94
51 105 59 11 7 23 13 27 13 5 0 8 -74 8 -165z m445 -2955 c0 -245 -2 -275 -16
-278 -10 -2 -19 6 -23 20 -8 30 -8 502 0 523 4 9 14 15 23 13 14 -3 16 -32 16
-278z m5 -565 l0 -265 -25 0 -25 0 0 258 c0 142 3 262 7 265 3 4 15 7 25 7 17
0 18 -15 18 -265z m-2 -568 l2 -268 -22 3 -23 3 -3 245 c-3 266 0 293 26 288
15 -3 17 -27 20 -271z"/>
<path fill="#ffffff" d="M790 2385 l0 -1295 300 0 300 0 0 1295 0 1295 -300 0 -300 0 0 -1295z
m575 0 l0 -1260 -275 0 -275 0 -3 1220 c-2 671 0 1239 3 1263 l6 42 272 -2
272 -3 0 -1260z"/>
<path fill="#ffffff" d="M1027 3603 c-4 -3 -7 -39 -7 -78 0 -53 4 -76 15 -85 13 -11 13 -15 3
-21 -19 -12 6 -34 28 -25 13 5 15 9 6 18 -19 19 -14 28 14 28 20 0 24 -4 20
-17 -3 -10 -1 -24 3 -32 8 -12 12 -13 26 -1 11 9 13 16 5 24 -14 14 -12 26 5
26 15 0 17 6 17 75 1 101 5 95 -65 95 -35 0 -67 -3 -70 -7z m108 -83 l0 -55
-45 0 -45 0 -3 44 c-5 65 1 73 50 69 l43 -3 0 -55z"/>
<path fill="#ffffff" d="M1072 3537 c-9 -10 -9 -18 1 -31 12 -16 14 -17 27 -1 11 14 11 18 -2
31 -12 13 -16 13 -26 1z"/>
<path fill="#ffffff" d="M1106 1375 c-3 -8 -3 -22 0 -30 5 -12 -3 -15 -40 -15 l-47 0 3 -77 3
-78 59 -3 c32 -2 63 1 68 6 12 12 21 98 14 128 -4 13 -13 24 -21 24 -17 0 -20
16 -5 25 8 5 7 11 -1 21 -15 18 -25 18 -33 -1z m40 -89 c3 -13 4 -37 2 -52 -3
-28 -5 -29 -53 -29 l-50 0 -3 39 c-5 58 2 66 52 66 40 0 46 -3 52 -24z"/>
<path fill="#ffffff" d="M1073 1260 c-17 -25 5 -44 29 -26 17 12 17 14 0 29 -16 15 -19 15
-29 -3z"/>
<path fill="#ffffff" d="M1037 1374 c-14 -14 -7 -25 13 -22 12 2 21 8 21 13 0 12 -24 18 -34
9z"/>
<path fill="#ffffff" d="M2274 3671 c-2 -2 -4 -586 -4 -1298 l0 -1293 310 0 310 0 0 1295 c0
1029 -3 1295 -12 1296 -44 3 -600 3 -604 0z m584 -184 l3 -147 -26 -10 c-15
-6 -140 -10 -286 -10 l-259 0 0 153 c0 85 3 156 6 159 3 3 130 5 282 5 l277
-2 3 -148z m0 -1294 l-3 -1088 -280 0 -280 0 -3 1088 -2 1087 285 0 285 0 -2
-1087z"/>
<path fill="#ffffff" d="M2435 3610 c-4 -6 43 -10 135 -10 92 0 139 4 135 10 -4 6 -60 10
-135 10 -75 0 -131 -4 -135 -10z"/>
<path fill="#ffffff" d="M2416 3582 c-3 -5 1 -15 9 -22 16 -14 20 -3 6 19 -5 8 -11 9 -15 3z"/>
<path fill="#ffffff" d="M2557 3512 c-16 -17 -16 -21 -2 -32 15 -12 45 -8 45 8 0 4 -6 16 -13
26 -12 16 -14 16 -30 -2z"/>
<path fill="#ffffff" d="M2528 3433 c-99 -4 -140 -23 -49 -23 48 0 50 -1 48 -26 -1 -15 4 -29
11 -31 8 -3 12 6 12 26 0 27 4 31 26 31 23 0 25 -3 20 -24 -3 -14 -1 -28 5
-32 15 -9 28 14 21 39 -5 19 -2 20 46 14 46 -5 67 3 44 17 -16 9 -85 13 -184
9z"/>
<path fill="#ffffff" d="M2519 1364 c-10 -13 -10 -17 2 -25 11 -7 10 -10 -8 -15 -21 -6 -23
-12 -23 -80 0 -41 1 -74 3 -74 50 -9 118 -9 140 -1 26 10 27 14 27 77 0 57 -3
67 -19 71 -14 3 -19 13 -18 31 1 18 -3 27 -13 27 -10 0 -14 -9 -13 -27 1 -24
-2 -28 -24 -28 -18 0 -24 4 -19 15 6 17 -2 45 -14 45 -4 0 -13 -7 -21 -16z
m109 -121 l3 -53 -54 0 c-57 0 -67 8 -67 51 0 45 18 60 68 57 l47 -3 3 -52z"/>
<path fill="#ffffff" d="M2560 1256 c-10 -13 -10 -19 0 -32 12 -14 15 -14 29 0 14 15 14 17 0
32 -14 14 -17 14 -29 0z"/>
<path fill="#ffffff" d="M5200 3672 c-7 -3 -10 -421 -10 -1298 l0 -1294 305 0 305 0 0 1295
c0 712 -3 1296 -7 1296 -20 3 -584 4 -593 1z m568 -182 c2 -127 1 -146 -15
-157 -12 -10 -84 -13 -280 -13 l-263 0 0 154 0 155 28 4 c15 2 140 4 277 3
l250 -1 3 -145z m0 -1297 l-3 -1088 -275 0 -275 0 -5 1060 c-3 583 -4 1072 -2
1088 l3 27 280 0 279 0 -2 -1087z"/>
<path fill="#ffffff" d="M5355 3610 c-4 -6 43 -10 135 -10 92 0 139 4 135 10 -4 6 -60 10
-135 10 -75 0 -131 -4 -135 -10z"/>
<path fill="#ffffff" d="M5336 3566 c3 -9 11 -16 16 -16 13 0 5 23 -10 28 -7 2 -10 -2 -6 -12z"/>
<path fill="#ffffff" d="M5470 3515 c-10 -12 -10 -18 0 -30 26 -32 50 -12 34 29 -8 20 -18 20
-34 1z"/>
<path fill="#ffffff" d="M5448 3433 c-102 -4 -133 -20 -50 -25 44 -3 47 -4 44 -30 -2 -14 1
-29 7 -32 12 -8 23 26 15 48 -5 13 0 16 25 16 28 0 30 -2 25 -29 -3 -16 -1
-31 4 -35 14 -8 24 26 16 49 -7 16 -2 17 44 13 40 -4 52 -2 52 8 0 8 -6 14
-14 14 -7 0 -26 1 -42 3 -16 2 -73 2 -126 0z"/>
<path fill="#ffffff" d="M5436 1365 c-3 -8 -3 -22 0 -30 4 -9 0 -15 -10 -15 -13 0 -16 -13
-16 -75 0 -84 -7 -77 85 -77 80 0 75 -5 75 76 0 68 -2 74 -22 80 -19 5 -20 8
-9 15 12 8 13 12 2 25 -18 21 -44 2 -36 -25 5 -14 1 -19 -14 -19 -23 0 -36 16
-21 25 8 5 7 11 -1 21 -15 18 -25 18 -33 -1z m110 -89 c3 -13 4 -37 2 -52 -3
-28 -5 -29 -58 -29 l-55 0 -3 39 c-5 59 1 66 57 66 45 0 51 -3 57 -24z"/>
<path fill="#ffffff" d="M5471 1252 c-15 -27 10 -50 29 -27 11 13 11 19 -2 32 -15 14 -17 13
-27 -5z"/>
<path fill="#ffffff" d="M6670 2385 l0 -1295 305 0 305 0 0 1295 0 1295 -305 0 -305 0 0
-1295z m585 0 l0 -1260 -277 -3 -278 -2 0 1265 0 1265 278 -2 277 -3 0 -1260z"/>
<path fill="#ffffff" d="M6914 3598 c-13 -20 -14 -130 -2 -152 7 -12 11 -29 9 -39 -2 -14 3
-18 16 -15 12 3 17 11 16 26 -2 16 3 22 18 22 16 0 20 -5 16 -20 -7 -26 16
-45 32 -26 6 7 9 21 5 30 -4 11 -1 16 10 16 13 0 16 14 16 85 l0 85 -64 0
c-39 0 -68 -5 -72 -12z m111 -78 l0 -55 -44 -3 c-50 -4 -61 6 -61 55 0 56 8
64 59 61 l46 -3 0 -55z"/>
<path fill="#ffffff" d="M6956 3533 c-4 -9 -1 -23 7 -30 12 -12 16 -12 27 1 10 13 10 19 0 31
-16 19 -26 19 -34 -2z"/>
<path fill="#ffffff" d="M6994 1378 c-5 -7 -7 -21 -6 -30 2 -13 -6 -17 -40 -20 l-43 -3 -3
-63 c-4 -84 5 -94 82 -90 l61 3 3 78 c2 65 0 77 -13 77 -11 0 -15 6 -10 19 7
23 -19 48 -31 29z m34 -125 l3 -53 -50 0 -51 0 0 56 0 55 48 -3 47 -3 3 -52z"/>
<path fill="#ffffff" d="M6961 1267 c-11 -15 -6 -47 9 -47 4 0 13 7 20 16 11 12 11 18 -2 30
-13 13 -16 13 -27 1z"/>
<path fill="#ffffff" d="M6922 1373 c-18 -7 -4 -23 19 -23 12 0 19 5 17 12 -5 14 -18 18 -36
11z"/>
<path fill="#ffffff" d="M3720 2375 l0 -1295 305 0 305 0 0 1295 0 1295 -305 0 -305 0 0
-1295z m588 178 l-3 -1088 -280 0 -280 0 -3 1075 c-1 591 0 1081 3 1088 3 9
70 12 285 12 l280 0 -2 -1087z m0 -1280 l-3 -158 -280 0 -280 0 -3 158 -3 157
286 0 286 0 -3 -157z"/>
<path fill="#ffffff" d="M3957 3593 c-4 -3 -7 -42 -7 -85 0 -64 3 -78 16 -78 10 0 13 -6 10
-17 -3 -10 -1 -24 3 -32 8 -12 12 -13 25 -2 11 10 13 17 6 26 -12 15 -3 25 23
25 14 0 17 -5 13 -16 -9 -24 13 -47 30 -33 10 8 11 15 4 24 -7 9 -6 16 5 25
19 16 21 140 3 158 -13 13 -120 17 -131 5z m119 -47 c3 -13 4 -38 2 -57 -3
-29 -7 -34 -33 -36 -63 -6 -75 3 -75 56 0 26 3 51 7 54 3 4 26 7 49 7 37 0 44
-3 50 -24z"/>
<path fill="#ffffff" d="M4010 3525 c-13 -16 -6 -35 15 -35 18 0 26 15 19 34 -8 20 -18 20
-34 1z"/>
<path fill="#ffffff" d="M1744 596 c-4 -9 -1 -22 5 -30 6 -7 10 -44 9 -84 -2 -68 -4 -72 -25
-72 -13 0 -23 -3 -23 -6 0 -10 33 -39 39 -34 3 3 7 -17 9 -44 2 -36 0 -47 -10
-44 -7 3 -13 16 -14 29 -2 48 -3 50 -29 43 -27 -7 -32 4 -12 25 10 11 9 13 -3
9 -11 -3 -16 -21 -18 -61 l-3 -57 -98 0 c-110 0 -118 -4 -123 -63 l-3 -38
-235 -1 c-143 0 -240 -4 -247 -10 -7 -6 -13 -27 -13 -48 0 -26 -5 -40 -17 -44
-9 -4 -72 -6 -140 -5 -94 1 -127 4 -138 16 -12 12 -15 55 -15 245 l0 231 -75
-6 c-199 -15 -405 -204 -431 -394 -10 -76 -21 -87 -83 -84 -51 2 -51 2 -51
-29 l0 -30 69 0 70 0 6 47 c12 100 26 157 47 202 32 65 160 191 229 225 54 26
173 51 191 40 4 -3 8 -119 8 -259 l0 -254 173 -3 c94 -2 174 -1 177 0 3 2 5
29 5 60 0 61 18 88 23 35 2 -18 8 -33 13 -33 6 0 7 9 4 20 -9 30 17 35 98 22
61 -11 73 -10 95 4 20 13 46 15 142 13 l119 -4 5 29 c3 16 6 41 6 57 l0 29
143 1 c234 1 431 -2 436 -7 3 -2 0 -9 -5 -14 -5 -5 -8 -55 -6 -112 l3 -103
2480 0 2479 0 0 40 c0 181 148 355 316 372 l54 6 0 -211 0 -210 44 0 45 1 3
109 c2 69 -1 107 -7 105 -5 -2 -11 -32 -13 -68 -3 -71 -13 -89 -37 -69 -12 10
-15 42 -15 191 l0 179 -25 0 c-172 0 -352 -153 -380 -324 -11 -67 -29 -76
-141 -76 -78 0 -95 3 -91 14 9 22 -5 28 -24 10 -17 -16 -19 -16 -25 0 -8 20
14 49 33 42 9 -4 13 3 13 19 0 18 -5 25 -19 25 -16 0 -31 18 -31 36 0 9 20 3
34 -12 13 -12 16 -13 16 -1 0 7 -12 20 -27 27 -26 13 -34 16 -57 19 -5 0 -4 7
3 14 7 10 7 17 0 24 -11 11 -8 71 6 124 5 20 3 28 -10 33 -30 11 -35 -3 -28
-80 l6 -75 -26 7 c-24 5 -27 3 -27 -18 0 -14 11 -35 25 -48 21 -19 25 -33 25
-78 0 -49 -2 -53 -16 -41 -11 9 -15 26 -12 56 3 43 -5 57 -16 28 -3 -8 -10
-15 -16 -15 -16 0 -11 27 6 34 9 4 14 9 11 12 -3 3 -15 0 -27 -6 -20 -11 -22
-18 -18 -81 l4 -69 -103 0 -102 0 -3 147 -3 148 -779 3 c-590 2 -782 -1 -793
-10 -12 -9 -14 -39 -11 -150 l3 -138 -1336 0 -1336 0 -5 137 c-3 76 -3 141 -1
146 2 4 290 7 639 7 l634 0 0 -135 c0 -113 2 -135 15 -135 13 0 15 23 15 148
l0 147 -665 0 -665 0 0 -48 0 -47 -126 1 c-90 0 -124 4 -121 12 2 7 13 16 25
22 33 15 34 33 2 49 -27 13 -30 13 -32 -2 -1 -9 -2 -24 -4 -32 -1 -8 -2 -21
-3 -27 -1 -7 -7 -13 -14 -13 -9 0 -13 16 -14 49 -1 43 2 50 20 53 31 5 34 28
3 28 -25 0 -25 1 -22 73 2 39 6 83 8 97 2 20 -2 26 -20 28 -13 2 -25 -3 -28
-12z m4586 -411 l0 -135 -767 0 -768 0 3 135 3 135 765 0 764 0 0 -135z
m-4600 95 c0 -13 -37 -13 -45 0 -3 6 -3 15 0 20 7 12 45 -5 45 -20z m4920 -45
c0 -8 -4 -15 -9 -15 -13 0 -22 16 -14 24 11 11 23 6 23 -9z m55 -96 c0 -31 -4
-45 -15 -47 -12 -2 -15 7 -14 45 3 59 1 56 17 51 7 -3 12 -22 12 -49z m-93
-44 c6 -14 8 -28 5 -31 -10 -11 -37 17 -37 37 0 27 18 23 32 -6z m838 -55 c0
-5 -5 -10 -11 -10 -5 0 -7 5 -4 10 3 6 8 10 11 10 2 0 4 -4 4 -10z"/>
<path fill="#ffffff" d="M1708 463 c-9 -35 13 -60 26 -28 6 17 -2 45 -14 45 -4 0 -10 -8 -12
-17z"/>
<path fill="#ffffff" d="M1845 380 c3 -5 10 -10 16 -10 5 0 9 5 9 10 0 6 -7 10 -16 10 -8 0
-12 -4 -9 -10z"/>
<path fill="#ffffff" d="M1510 209 c0 -5 5 -7 10 -4 6 3 10 8 10 11 0 2 -4 4 -10 4 -5 0 -10
-5 -10 -11z"/>
<path fill="#ffffff" d="M1586 188 c-16 -16 -42 -35 -58 -40 -15 -6 -28 -16 -28 -24 0 -12 15
-14 73 -12 l72 3 3 53 c3 45 1 52 -15 52 -10 -1 -31 -15 -47 -32z"/>
<path fill="#ffffff" d="M1710 158 c0 -29 -3 -77 -6 -105 -6 -44 -4 -53 9 -53 13 0 15 16 14
105 -1 58 -5 105 -9 105 -5 0 -8 -24 -8 -52z"/>
<path fill="#ffffff" d="M1250 91 c0 -6 13 -11 28 -11 15 0 32 -4 38 -9 5 -5 40 -11 79 -13
58 -2 70 0 73 13 2 13 -6 16 -45 15 -26 -1 -76 3 -110 7 -44 6 -63 6 -63 -2z"/>
<path fill="#ffffff" d="M1013 24 c-36 -15 7 -19 223 -20 173 -2 234 1 231 10 -4 11 -428 21
-454 10z"/>
</g>
</svg>
